<svg width="65" height="64" viewBox="0 0 65 64" fill="none" xmlns="http://www.w3.org/2000/svg">
<g clip-path="url(#clip0_171_175)">
<path d="M44.7888 21.6139C41.6846 18.5901 37.6927 18.2638 34.3707 20.7627C33.0649 21.7448 31.8092 23.1236 30.5318 24.9767C28.9052 27.3386 28.4854 30.2178 28.1153 32.7575C27.4601 37.2507 27.962 41.7122 28.4472 46.0253C28.5191 46.6626 28.6842 48.1286 30.1162 48.1283C30.162 48.1283 30.2094 48.127 30.2581 48.1238C31.6804 48.0327 31.6856 46.8162 31.6891 46.0108C31.6891 45.9333 31.6891 45.8578 31.6912 45.7843C31.7091 44.8185 31.6856 43.8377 31.6627 42.8895C31.6303 41.5347 31.5963 40.1338 31.6854 38.7696C31.8505 35.9077 32.1863 33.0583 32.6909 30.2362C33.1297 27.8759 34.4447 25.7684 36.3724 24.3367C38.4212 22.7784 40.25 22.9624 41.9657 24.898C43.2644 26.3512 44.1303 28.139 44.4656 30.059C44.8459 32.29 45.108 34.583 45.3611 36.8011C45.4599 37.6655 45.5586 38.5304 45.6642 39.3935L45.6189 39.3995C45.557 39.408 45.4999 39.4372 45.4572 39.4828C45.4146 39.5283 45.3887 39.5871 45.3845 39.6492C45.3577 40.0406 45.33 40.432 45.3016 40.8234C45.2339 41.7654 45.1638 42.7399 45.1146 43.7005L45.1085 43.8169C45.0508 44.513 45.0579 45.2127 45.1291 45.9075C45.2947 47.1367 46.1596 48.0203 47.2814 48.1062C48.3612 48.1886 49.3649 47.4572 49.7781 46.2868C49.8719 46.0095 49.9301 45.7213 49.9517 45.4292C50.3634 40.7483 50.598 34.5877 48.7428 28.4463C47.8847 25.6054 46.5911 23.3698 44.7888 21.6139Z" fill="#F7F7F7"/>
<path d="M19.0682 45.4354C19.0853 46.2753 19.2945 47.1001 19.6798 47.8471C19.9215 48.314 20.7251 48.5566 21.2215 48.5566C21.2376 48.5566 21.2532 48.5566 21.2687 48.5566C21.7349 48.5416 22.3109 47.9806 22.4379 47.5489C22.6329 46.8336 22.712 46.0919 22.6722 45.3516C22.5142 41.0191 22.3322 36.6149 22.1568 32.3559L21.8073 23.8378C21.781 23.1891 21.7312 21.9812 20.2624 21.8601C20.2141 21.8567 20.1657 21.8658 20.122 21.8864C18.9937 22.4335 19.0293 23.4625 19.058 24.2895C19.063 24.4309 19.0679 24.5715 19.0674 24.7087C19.0469 30.3872 19.0274 37.8749 19.0682 45.4354Z" fill="#F7F7F7"/>
<path d="M20.3424 13.466C20.1641 13.3288 19.9797 13.1871 19.8177 13.0396C19.7802 13.005 19.7335 12.9819 19.6833 12.973C19.6331 12.964 19.5813 12.9695 19.5341 12.9888C17.75 13.7107 17.6362 14.9529 17.8548 15.8679C17.9623 16.2338 18.1463 16.5727 18.3947 16.8621C18.6431 17.1515 18.9501 17.3848 19.2954 17.5466C19.3982 17.584 19.507 17.6019 19.6162 17.5994C20.1828 17.5994 20.9471 17.2059 21.1952 16.8042C21.3841 16.4749 21.501 16.1093 21.5385 15.7314C21.5759 15.3536 21.533 14.9722 21.4125 14.6122C21.2183 14.1405 20.773 13.7981 20.3424 13.466Z" fill="#F7F7F7"/>
<path d="M62.8834 10.6876C61.9466 2.99448 55.4725 -0.0935796 49.4747 0.261712C45.9152 0.470569 42.3899 0.581964 38.192 0.68468C34.3886 0.777914 30.4883 0.858051 27.0473 0.928636C22.1096 1.0303 17.0036 1.13561 11.9339 1.27573C6.11329 1.43691 1.41997 5.18633 0.517384 10.394C0.154981 12.4839 0.144431 14.593 0.166818 16.9352C0.232398 23.7753 0.332482 30.6865 0.430194 37.3702L0.440995 38.094C0.479797 40.7827 0.517694 43.4718 0.554743 46.1609C0.561064 46.6139 0.576864 47.0679 0.593193 47.522L0.594545 47.5583C0.66077 48.6835 0.649606 49.8117 0.561109 50.9353C0.247956 53.9359 1.39653 57.1351 3.6339 59.4929C6.12095 62.1137 9.64564 63.4461 13.5615 63.2465C17.8345 63.0252 22.1931 63.0676 26.4081 63.1082L26.7134 63.1111C31.7154 63.159 36.8022 63.2863 41.7281 63.41L44.2117 63.4719C44.6299 63.497 45.045 63.5596 45.4517 63.66C45.6647 63.7053 45.8783 63.7503 46.0909 63.7869C46.1214 63.7922 46.1522 63.7948 46.1833 63.7948H48.8784C48.9048 63.7948 48.9314 63.7927 48.9575 63.789C49.4961 63.71 50.0373 63.6386 50.5767 63.5681L50.6172 63.5628C51.8264 63.4048 53.0772 63.2417 54.2961 62.9771C59.5541 61.8348 64.0088 56.3816 64.0235 51.0694C64.0272 49.8173 64.0317 48.5652 64.0367 47.3131L64.0391 46.6847C64.0654 39.8222 64.0944 32.7259 63.9469 25.7384C63.8389 20.6561 63.4812 15.5922 62.8834 10.6876ZM59.9599 50.6988C59.9762 54.8019 56.3973 58.6435 51.8122 59.4444C48.299 60.0581 44.7079 59.8495 41.2345 59.6485C39.9453 59.5737 38.6121 59.4963 37.2873 59.4613C35.7832 59.4218 34.2517 59.3441 32.762 59.2685L32.6303 59.2619C31.9893 59.2295 31.3477 59.1971 30.7114 59.1681H30.6819C29.0611 59.1681 27.44 59.166 25.819 59.1621C23.9379 59.1589 22.0277 59.1558 20.1074 59.1558C17.583 59.1558 15.5076 59.161 13.5757 59.1726H13.4906C10.6552 59.1726 8.31615 58.3314 6.72642 56.7396C5.07348 55.0845 4.21093 52.6125 4.23279 49.59C4.28389 42.4833 4.25305 35.2887 4.22302 28.3307C4.20617 24.3576 4.18878 20.2497 4.18668 16.1909C4.14712 13.8533 4.67587 11.541 5.72744 9.45295C6.92 7.15948 9.05015 5.94243 12.4308 5.62296C17.1747 5.17522 21.0026 4.93131 24.4773 4.85572C34.5087 4.63607 42.2288 4.55837 49.5082 4.60341C54.8181 4.63633 57.8835 7.1342 58.8843 12.24C59.9905 17.8999 59.9747 23.7174 59.9578 29.3462L59.9565 29.8235C59.9325 37.8077 59.9338 44.441 59.9591 50.6988H59.9599Z" fill="#F7F7F7"/>
</g>
<defs>
<clipPath id="clip0_171_175">
<rect width="64.2634" height="64" fill="white"/>
</clipPath>
</defs>
</svg>
